<svg width="24" height="24" viewBox="0 0 24 24" fill="none" xmlns="http://www.w3.org/2000/svg">
<g clip-path="url(#clip0_5_22)">
<path fill-rule="evenodd" clip-rule="evenodd" d="M4 0C1.79086 0 0 1.79086 0 4V20C0 22.2091 1.79086 24 4 24H20C22.2091 24 24 22.2091 24 20V4C24 1.79086 22.2091 0 20 0H4ZM15.6985 7.92545C14.7384 7.0418 13.5362 6.58364 12.1837 6.58364C9.79593 6.58364 7.76713 8.16252 7.04082 10.2898C6.85715 10.8298 6.74858 11.4025 6.74858 11.9999C6.74858 12.5972 6.85715 13.1699 7.04082 13.7099L7.02845 13.7193L7.03688 13.713L7.04063 13.7182C7.76704 15.8455 9.79574 17.4246 12.1835 17.4246C13.4191 17.4246 14.4629 17.0973 15.2811 16.5573C16.2579 15.9191 16.9091 14.97 17.1262 13.8491H12.1837V10.3636L20.833 10.3637C20.9416 10.9527 21 11.5664 21 12.2046C21 14.9455 19.9981 17.2528 18.2616 18.8237C16.7421 20.1982 14.663 21 12.1835 21C8.59353 21 5.49634 18.9709 3.9852 16.0336C3.35907 14.8228 3 13.4563 3 11.9999C3 10.5436 3.35896 9.17723 3.98509 7.96637C5.49623 5.0209 8.59372 3 12.1837 3C14.6633 3 16.7338 3.89187 18.3284 5.34821L15.6985 7.92545Z" fill="#EA4335"/>
</g>
<defs>
<clipPath id="clip0_5_22">
<rect width="24" height="24" rx="5" fill="white"/>
</clipPath>
</defs>
</svg>
