<svg width="24" height="24" viewBox="0 0 24 24" fill="none" xmlns="http://www.w3.org/2000/svg">
<g clip-path="url(#clip0_5_18)">
<path d="M22.2283 0H1.77167C1.30179 0 0.851161 0.186657 0.518909 0.518909C0.186657 0.851161 0 1.30179 0 1.77167V22.2283C0 22.6982 0.186657 23.1488 0.518909 23.4811C0.851161 23.8133 1.30179 24 1.77167 24H22.2283C22.6982 24 23.1488 23.8133 23.4811 23.4811C23.8133 23.1488 24 22.6982 24 22.2283V1.77167C24 1.30179 23.8133 0.851161 23.4811 0.518909C23.1488 0.186657 22.6982 0 22.2283 0Z" fill="black"/>
<path d="M18.9794 15.5817L18.3436 18.3378C18.2543 18.7274 17.9118 19 17.5107 19C10.6115 18.9995 5 13.3888 5 6.49032C5 6.08948 5.27262 5.74661 5.66233 5.65774L8.41884 5.02203C8.82028 4.92902 9.23048 5.13736 9.39729 5.51748L10.6694 8.48413C10.8182 8.83356 10.7178 9.24069 10.4239 9.48075L8.95155 10.6628C9.88077 12.5554 11.4198 14.0942 13.3133 15.0239L14.5187 13.5529C14.7563 13.2581 15.1665 13.1561 15.516 13.3075L18.4831 14.5791C18.84 14.7669 19.0724 15.1825 18.9794 15.5817Z" fill="white"/>
</g>
<defs>
<clipPath id="clip0_5_18">
<rect width="24" height="24" rx="5" fill="white"/>
</clipPath>
</defs>
</svg>
